<?xml version="1.0" encoding="UTF-8" standalone="no"?>
<!DOCTYPE svg PUBLIC "-//W3C//DTD SVG 1.1//EN"
 "http://www.w3.org/Graphics/SVG/1.1/DTD/svg11.dtd">
<!-- Generated by graphviz version 2.43.0 (0)
 -->
<!-- Title: %3 Pages: 1 -->
<svg width="1531pt" height="959pt"
 viewBox="0.00 0.00 1531.00 959.00" xmlns="http://www.w3.org/2000/svg" xmlns:xlink="http://www.w3.org/1999/xlink">
<g id="graph0" class="graph" transform="scale(1 1) rotate(0) translate(4 955)">
<title>%3</title>
<polygon fill="white" stroke="transparent" points="-4,4 -4,-955 1527,-955 1527,4 -4,4"/>
<!-- decision1 -->
<g id="node1" class="node">
<title>decision1</title>
<polygon fill="none" stroke="black" points="844,-878 704,-840 844,-802 984,-840 844,-878"/>
<text text-anchor="middle" x="844" y="-843.8" font-family="Times,serif" font-size="14.00">Is your input</text>
<text text-anchor="middle" x="844" y="-828.8" font-family="Times,serif" font-size="14.00">a recursive type?</text>
</g>
<!-- decision1_1 -->
<g id="node2" class="node">
<title>decision1_1</title>
<polygon fill="none" stroke="black" points="759,-751 619,-713 759,-675 899,-713 759,-751"/>
<text text-anchor="middle" x="759" y="-716.8" font-family="Times,serif" font-size="14.00">Is your output</text>
<text text-anchor="middle" x="759" y="-701.8" font-family="Times,serif" font-size="14.00">a recursive type?</text>
</g>
<!-- decision1&#45;&gt;decision1_1 -->
<g id="edge2" class="edge">
<title>decision1&#45;&gt;decision1_1</title>
<path fill="none" stroke="black" d="M822.55,-807.46C811.58,-791.32 798.1,-771.5 786.39,-754.27"/>
<polygon fill="black" stroke="black" points="788.96,-751.83 780.44,-745.53 783.17,-755.77 788.96,-751.83"/>
<text text-anchor="middle" x="819.5" y="-772.8" font-family="Times,serif" font-size="14.00">yes</text>
</g>
<!-- decision1_2 -->
<g id="node3" class="node">
<title>decision1_2</title>
<polygon fill="none" stroke="black" points="929,-657 789,-619 929,-581 1069,-619 929,-657"/>
<text text-anchor="middle" x="929" y="-622.8" font-family="Times,serif" font-size="14.00">Is your output</text>
<text text-anchor="middle" x="929" y="-607.8" font-family="Times,serif" font-size="14.00">a recursive type?</text>
</g>
<!-- decision1&#45;&gt;decision1_2 -->
<g id="edge3" class="edge">
<title>decision1&#45;&gt;decision1_2</title>
<path fill="none" stroke="black" d="M871.3,-809C884.45,-792.92 899.23,-772.11 908,-751 919.03,-724.45 924.3,-692.66 926.8,-667.04"/>
<polygon fill="black" stroke="black" points="930.31,-667.09 927.68,-656.83 923.33,-666.49 930.31,-667.09"/>
<text text-anchor="middle" x="907" y="-772.8" font-family="Times,serif" font-size="14.00">no</text>
</g>
<!-- choose_either -->
<g id="node4" class="node">
<title>choose_either</title>
<ellipse fill="none" stroke="black" cx="793" cy="-545" rx="65.79" ry="18"/>
<text text-anchor="middle" x="793" y="-541.3" font-family="Times,serif" font-size="14.00">I feel lucky!</text>
</g>
<!-- decision1_1&#45;&gt;choose_either -->
<g id="edge4" class="edge">
<title>decision1_1&#45;&gt;choose_either</title>
<path fill="none" stroke="black" d="M750.08,-677.36C744.86,-650.02 741.61,-611.53 755,-581 756.83,-576.82 759.44,-572.92 762.44,-569.35"/>
<polygon fill="black" stroke="black" points="765.03,-571.71 769.48,-562.1 760,-566.83 765.03,-571.71"/>
<text text-anchor="middle" x="767.5" y="-615.3" font-family="Times,serif" font-size="14.00">yes</text>
</g>
<!-- start_folds -->
<g id="node5" class="node">
<title>start_folds</title>
<ellipse fill="none" stroke="black" cx="691" cy="-472" rx="61.99" ry="18"/>
<text text-anchor="middle" x="691" y="-468.3" font-family="Times,serif" font-size="14.00">Use a fold!</text>
</g>
<!-- decision1_1&#45;&gt;start_folds -->
<g id="edge5" class="edge">
<title>decision1_1&#45;&gt;start_folds</title>
<path fill="none" stroke="black" d="M742.91,-679.14C729.16,-649.51 710.05,-604.36 700,-563 694.97,-542.31 692.75,-518.28 691.76,-500.26"/>
<polygon fill="black" stroke="black" points="695.25,-499.99 691.31,-490.16 688.26,-500.3 695.25,-499.99"/>
<text text-anchor="middle" x="709" y="-541.3" font-family="Times,serif" font-size="14.00">no</text>
</g>
<!-- start_unfolds -->
<g id="node6" class="node">
<title>start_unfolds</title>
<ellipse fill="none" stroke="black" cx="929" cy="-472" rx="79.09" ry="18"/>
<text text-anchor="middle" x="929" y="-468.3" font-family="Times,serif" font-size="14.00">Use an unfold!</text>
</g>
<!-- decision1_2&#45;&gt;start_unfolds -->
<g id="edge6" class="edge">
<title>decision1_2&#45;&gt;start_unfolds</title>
<path fill="none" stroke="black" d="M929,-580.66C929,-555.56 929,-523.05 929,-500.35"/>
<polygon fill="black" stroke="black" points="932.5,-500.07 929,-490.07 925.5,-500.07 932.5,-500.07"/>
<text text-anchor="middle" x="941.5" y="-541.3" font-family="Times,serif" font-size="14.00">yes</text>
</g>
<!-- choose_either&#45;&gt;start_folds -->
<g id="edge7" class="edge">
<title>choose_either&#45;&gt;start_folds</title>
<path fill="none" stroke="black" d="M770.11,-528.07C755.94,-518.2 737.55,-505.4 722.07,-494.63"/>
<polygon fill="black" stroke="black" points="724.02,-491.72 713.81,-488.88 720.02,-497.47 724.02,-491.72"/>
</g>
<!-- choose_either&#45;&gt;start_unfolds -->
<g id="edge8" class="edge">
<title>choose_either&#45;&gt;start_unfolds</title>
<path fill="none" stroke="black" d="M822.18,-528.77C841.98,-518.43 868.39,-504.64 890,-493.36"/>
<polygon fill="black" stroke="black" points="891.69,-496.43 898.93,-488.7 888.45,-490.22 891.69,-496.43"/>
</g>
<!-- fold1 -->
<g id="node7" class="node">
<title>fold1</title>
<polygon fill="none" stroke="black" points="490,-417 271,-379 490,-341 709,-379 490,-417"/>
<text text-anchor="middle" x="490" y="-382.8" font-family="Times,serif" font-size="14.00">Do you only combine results</text>
<text text-anchor="middle" x="490" y="-367.8" font-family="Times,serif" font-size="14.00">from recursive calls?</text>
</g>
<!-- start_folds&#45;&gt;fold1 -->
<g id="edge9" class="edge">
<title>start_folds&#45;&gt;fold1</title>
<path fill="none" stroke="black" d="M658.71,-456.38C631.83,-444.21 592.62,-426.46 558.77,-411.13"/>
<polygon fill="black" stroke="black" points="559.93,-407.82 549.37,-406.88 557.04,-414.19 559.93,-407.82"/>
</g>
<!-- unfold1 -->
<g id="node11" class="node">
<title>unfold1</title>
<polygon fill="none" stroke="black" points="963,-417 727,-379 963,-341 1199,-379 963,-417"/>
<text text-anchor="middle" x="963" y="-382.8" font-family="Times,serif" font-size="14.00">Do you only generate subtrees</text>
<text text-anchor="middle" x="963" y="-367.8" font-family="Times,serif" font-size="14.00">by making recursive calls?</text>
</g>
<!-- start_unfolds&#45;&gt;unfold1 -->
<g id="edge18" class="edge">
<title>start_unfolds&#45;&gt;unfold1</title>
<path fill="none" stroke="black" d="M935.4,-453.88C938.52,-445.53 942.43,-435.04 946.33,-424.62"/>
<polygon fill="black" stroke="black" points="949.65,-425.72 949.87,-415.13 943.1,-423.27 949.65,-425.72"/>
</g>
<!-- fold2 -->
<g id="node8" class="node">
<title>fold2</title>
<polygon fill="none" stroke="black" points="163,-290 0,-252 163,-214 326,-252 163,-290"/>
<text text-anchor="middle" x="163" y="-255.8" font-family="Times,serif" font-size="14.00">Only from</text>
<text text-anchor="middle" x="163" y="-240.8" font-family="Times,serif" font-size="14.00">immediate children?</text>
</g>
<!-- fold1&#45;&gt;fold2 -->
<g id="edge10" class="edge">
<title>fold1&#45;&gt;fold2</title>
<path fill="none" stroke="black" d="M423.04,-352.4C367.57,-331.2 289.02,-301.17 232.79,-279.68"/>
<polygon fill="black" stroke="black" points="233.86,-276.34 223.27,-276.04 231.36,-282.88 233.86,-276.34"/>
<text text-anchor="middle" x="359.5" y="-311.8" font-family="Times,serif" font-size="14.00">yes</text>
</g>
<!-- fold3 -->
<g id="node9" class="node">
<title>fold3</title>
<polygon fill="none" stroke="black" points="523,-290 344,-252 523,-214 702,-252 523,-290"/>
<text text-anchor="middle" x="523" y="-255.8" font-family="Times,serif" font-size="14.00">Only that and examine</text>
<text text-anchor="middle" x="523" y="-240.8" font-family="Times,serif" font-size="14.00">the original subtrees?</text>
</g>
<!-- fold1&#45;&gt;fold3 -->
<g id="edge11" class="edge">
<title>fold1&#45;&gt;fold3</title>
<path fill="none" stroke="black" d="M499.37,-342.51C503.02,-328.67 507.25,-312.65 511.12,-298.01"/>
<polygon fill="black" stroke="black" points="514.55,-298.7 513.72,-288.14 507.79,-296.92 514.55,-298.7"/>
<text text-anchor="middle" x="518" y="-311.8" font-family="Times,serif" font-size="14.00">no</text>
</g>
<!-- cata -->
<g id="node15" class="node">
<title>cata</title>
<ellipse fill="none" stroke="black" cx="81" cy="-125" rx="55.49" ry="18"/>
<text text-anchor="middle" x="81" y="-121.3" font-family="Times,serif" font-size="14.00">Use cata!</text>
</g>
<!-- fold2&#45;&gt;cata -->
<g id="edge12" class="edge">
<title>fold2&#45;&gt;cata</title>
<path fill="none" stroke="black" d="M141.88,-218.81C128.06,-197.73 110.25,-170.59 97.47,-151.11"/>
<polygon fill="black" stroke="black" points="100.4,-149.19 91.98,-142.74 94.54,-153.03 100.4,-149.19"/>
<text text-anchor="middle" x="139.5" y="-184.8" font-family="Times,serif" font-size="14.00">yes</text>
</g>
<!-- histo -->
<g id="node16" class="node">
<title>histo</title>
<ellipse fill="none" stroke="black" cx="213" cy="-125" rx="58.49" ry="18"/>
<text text-anchor="middle" x="213" y="-121.3" font-family="Times,serif" font-size="14.00">Use histo!</text>
</g>
<!-- fold2&#45;&gt;histo -->
<g id="edge13" class="edge">
<title>fold2&#45;&gt;histo</title>
<path fill="none" stroke="black" d="M176.66,-216.84C184.8,-196.5 194.97,-171.08 202.48,-152.3"/>
<polygon fill="black" stroke="black" points="205.78,-153.48 206.24,-142.89 199.28,-150.88 205.78,-153.48"/>
<text text-anchor="middle" x="200" y="-184.8" font-family="Times,serif" font-size="14.00">no</text>
</g>
<!-- fold4 -->
<g id="node10" class="node">
<title>fold4</title>
<polygon fill="none" stroke="black" points="456,-163 310,-125 456,-87 602,-125 456,-163"/>
<text text-anchor="middle" x="456" y="-128.8" font-family="Times,serif" font-size="14.00">What do you do to</text>
<text text-anchor="middle" x="456" y="-113.8" font-family="Times,serif" font-size="14.00">each subtree?</text>
</g>
<!-- fold3&#45;&gt;fold4 -->
<g id="edge14" class="edge">
<title>fold3&#45;&gt;fold4</title>
<path fill="none" stroke="black" d="M505.05,-217.5C496.88,-202.27 487.13,-184.08 478.48,-167.95"/>
<polygon fill="black" stroke="black" points="481.35,-165.89 473.54,-158.72 475.18,-169.19 481.35,-165.89"/>
<text text-anchor="middle" x="506.5" y="-184.8" font-family="Times,serif" font-size="14.00">yes</text>
</g>
<!-- gcata -->
<g id="node14" class="node">
<title>gcata</title>
<ellipse fill="none" stroke="black" cx="721" cy="-125" rx="101.23" ry="37.45"/>
<text text-anchor="middle" x="721" y="-136.3" font-family="Times,serif" font-size="14.00">Write your own</text>
<text text-anchor="middle" x="721" y="-121.3" font-family="Times,serif" font-size="14.00">recursion scheme</text>
<text text-anchor="middle" x="721" y="-106.3" font-family="Times,serif" font-size="14.00">(using gcata)!</text>
</g>
<!-- fold3&#45;&gt;gcata -->
<g id="edge15" class="edge">
<title>fold3&#45;&gt;gcata</title>
<path fill="none" stroke="black" d="M566.94,-223.26C594.94,-205.58 631.55,-182.47 662.06,-163.21"/>
<polygon fill="black" stroke="black" points="664.31,-165.93 670.9,-157.63 660.58,-160.01 664.31,-165.93"/>
<text text-anchor="middle" x="643" y="-184.8" font-family="Times,serif" font-size="14.00">no</text>
</g>
<!-- zygo -->
<g id="node17" class="node">
<title>zygo</title>
<ellipse fill="none" stroke="black" cx="390" cy="-18" rx="57.39" ry="18"/>
<text text-anchor="middle" x="390" y="-14.3" font-family="Times,serif" font-size="14.00">Use zygo!</text>
</g>
<!-- fold4&#45;&gt;zygo -->
<g id="edge16" class="edge">
<title>fold4&#45;&gt;zygo</title>
<path fill="none" stroke="black" d="M435.84,-91.93C426.32,-76.79 415.12,-58.96 406.17,-44.73"/>
<polygon fill="black" stroke="black" points="408.94,-42.56 400.66,-35.95 403.02,-46.28 408.94,-42.56"/>
<text text-anchor="middle" x="460" y="-57.8" font-family="Times,serif" font-size="14.00">Apply cata</text>
</g>
<!-- para -->
<g id="node18" class="node">
<title>para</title>
<ellipse fill="none" stroke="black" cx="522" cy="-18" rx="56.59" ry="18"/>
<text text-anchor="middle" x="522" y="-14.3" font-family="Times,serif" font-size="14.00">Use para!</text>
</g>
<!-- fold4&#45;&gt;para -->
<g id="edge17" class="edge">
<title>fold4&#45;&gt;para</title>
<path fill="none" stroke="black" d="M482.61,-93.62C488.73,-85.88 494.93,-77.37 500,-69 504.42,-61.7 508.45,-53.35 511.82,-45.6"/>
<polygon fill="black" stroke="black" points="515.12,-46.79 515.72,-36.21 508.65,-44.11 515.12,-46.79"/>
<text text-anchor="middle" x="563.5" y="-57.8" font-family="Times,serif" font-size="14.00">Something else</text>
</g>
<!-- unfold2 -->
<g id="node12" class="node">
<title>unfold2</title>
<polygon fill="none" stroke="black" points="918,-290 749,-252 918,-214 1087,-252 918,-290"/>
<text text-anchor="middle" x="918" y="-255.8" font-family="Times,serif" font-size="14.00">Do you only generate</text>
<text text-anchor="middle" x="918" y="-240.8" font-family="Times,serif" font-size="14.00">1 layer at a time?</text>
</g>
<!-- unfold1&#45;&gt;unfold2 -->
<g id="edge19" class="edge">
<title>unfold1&#45;&gt;unfold2</title>
<path fill="none" stroke="black" d="M950.17,-342.8C947.78,-336.22 945.31,-329.4 943,-323 939.98,-314.62 936.77,-305.67 933.69,-297.07"/>
<polygon fill="black" stroke="black" points="936.96,-295.79 930.3,-287.55 930.36,-298.14 936.96,-295.79"/>
<text text-anchor="middle" x="955.5" y="-311.8" font-family="Times,serif" font-size="14.00">yes</text>
</g>
<!-- unfold3 -->
<g id="node13" class="node">
<title>unfold3</title>
<polygon fill="none" stroke="black" points="1314,-290 1105,-252 1314,-214 1523,-252 1314,-290"/>
<text text-anchor="middle" x="1314" y="-255.8" font-family="Times,serif" font-size="14.00">Only that and by returning</text>
<text text-anchor="middle" x="1314" y="-240.8" font-family="Times,serif" font-size="14.00">pre&#45;built subtrees?</text>
</g>
<!-- unfold1&#45;&gt;unfold3 -->
<g id="edge20" class="edge">
<title>unfold1&#45;&gt;unfold3</title>
<path fill="none" stroke="black" d="M1034.88,-352.4C1093.32,-331.59 1175.66,-302.27 1235.76,-280.86"/>
<polygon fill="black" stroke="black" points="1236.96,-284.15 1245.2,-277.5 1234.61,-277.56 1236.96,-284.15"/>
<text text-anchor="middle" x="1168" y="-311.8" font-family="Times,serif" font-size="14.00">no</text>
</g>
<!-- ana -->
<g id="node19" class="node">
<title>ana</title>
<ellipse fill="none" stroke="black" cx="903" cy="-125" rx="51.99" ry="18"/>
<text text-anchor="middle" x="903" y="-121.3" font-family="Times,serif" font-size="14.00">Use ana!</text>
</g>
<!-- unfold2&#45;&gt;ana -->
<g id="edge21" class="edge">
<title>unfold2&#45;&gt;ana</title>
<path fill="none" stroke="black" d="M913.66,-214.84C911.3,-195.17 908.43,-171.22 906.26,-153.15"/>
<polygon fill="black" stroke="black" points="909.71,-152.52 905.04,-143.01 902.76,-153.36 909.71,-152.52"/>
<text text-anchor="middle" x="923.5" y="-184.8" font-family="Times,serif" font-size="14.00">yes</text>
</g>
<!-- futu -->
<g id="node21" class="node">
<title>futu</title>
<ellipse fill="none" stroke="black" cx="1028" cy="-125" rx="54.69" ry="18"/>
<text text-anchor="middle" x="1028" y="-121.3" font-family="Times,serif" font-size="14.00">Use futu!</text>
</g>
<!-- unfold2&#45;&gt;futu -->
<g id="edge22" class="edge">
<title>unfold2&#45;&gt;futu</title>
<path fill="none" stroke="black" d="M945.19,-220.1C964.2,-198.5 989.23,-170.06 1006.78,-150.12"/>
<polygon fill="black" stroke="black" points="1009.59,-152.22 1013.57,-142.4 1004.33,-147.6 1009.59,-152.22"/>
<text text-anchor="middle" x="988" y="-184.8" font-family="Times,serif" font-size="14.00">no</text>
</g>
<!-- apo -->
<g id="node20" class="node">
<title>apo</title>
<ellipse fill="none" stroke="black" cx="1158" cy="-125" rx="51.99" ry="18"/>
<text text-anchor="middle" x="1158" y="-121.3" font-family="Times,serif" font-size="14.00">Use apo!</text>
</g>
<!-- unfold3&#45;&gt;apo -->
<g id="edge23" class="edge">
<title>unfold3&#45;&gt;apo</title>
<path fill="none" stroke="black" d="M1276.24,-220.74C1248.37,-198.41 1211.06,-168.52 1185.87,-148.33"/>
<polygon fill="black" stroke="black" points="1187.81,-145.4 1177.82,-141.88 1183.43,-150.86 1187.81,-145.4"/>
<text text-anchor="middle" x="1257.5" y="-184.8" font-family="Times,serif" font-size="14.00">yes</text>
</g>
<!-- gana -->
<g id="node22" class="node">
<title>gana</title>
<ellipse fill="none" stroke="black" cx="1329" cy="-125" rx="101.23" ry="37.45"/>
<text text-anchor="middle" x="1329" y="-136.3" font-family="Times,serif" font-size="14.00">Write your own</text>
<text text-anchor="middle" x="1329" y="-121.3" font-family="Times,serif" font-size="14.00">recursion scheme</text>
<text text-anchor="middle" x="1329" y="-106.3" font-family="Times,serif" font-size="14.00">(using gana)!</text>
</g>
<!-- unfold3&#45;&gt;gana -->
<g id="edge24" class="edge">
<title>unfold3&#45;&gt;gana</title>
<path fill="none" stroke="black" d="M1318.38,-214.51C1319.94,-201.53 1321.71,-186.73 1323.36,-173"/>
<polygon fill="black" stroke="black" points="1326.87,-173.1 1324.59,-162.75 1319.92,-172.26 1326.87,-173.1"/>
<text text-anchor="middle" x="1331" y="-184.8" font-family="Times,serif" font-size="14.00">no</text>
</g>
<!-- start -->
<g id="node23" class="node">
<title>start</title>
<ellipse fill="none" stroke="black" cx="844" cy="-933" rx="33.29" ry="18"/>
<text text-anchor="middle" x="844" y="-929.3" font-family="Times,serif" font-size="14.00">start</text>
</g>
<!-- start&#45;&gt;decision1 -->
<g id="edge1" class="edge">
<title>start&#45;&gt;decision1</title>
<path fill="none" stroke="black" d="M844,-914.88C844,-907.25 844,-897.83 844,-888.31"/>
<polygon fill="black" stroke="black" points="847.5,-888.02 844,-878.02 840.5,-888.02 847.5,-888.02"/>
</g>
</g>
</svg>
