<?xml version="1.0" encoding="UTF-8" standalone="no"?>
<!DOCTYPE svg PUBLIC "-//W3C//DTD SVG 1.1//EN"
 "http://www.w3.org/Graphics/SVG/1.1/DTD/svg11.dtd">
<!-- Generated by graphviz version 2.40.1 (20161225.0304)
 -->
<!-- Title: %3 Pages: 1 -->
<svg width="1233pt" height="873pt"
 viewBox="0.00 0.00 1233.20 873.00" xmlns="http://www.w3.org/2000/svg" xmlns:xlink="http://www.w3.org/1999/xlink">
<g id="graph0" class="graph" transform="scale(1 1) rotate(0) translate(4 869)">
<title>%3</title>
<polygon fill="#ffffff" stroke="transparent" points="-4,4 -4,-869 1229.1973,-869 1229.1973,4 -4,4"/>
<!-- decision1 -->
<g id="node1" class="node">
<title>decision1</title>
<polygon fill="none" stroke="#000000" points="700.6729,-792 590.0027,-756 700.6729,-720 811.343,-756 700.6729,-792"/>
<text text-anchor="middle" x="700.6729" y="-758.8" font-family="Times,serif" font-size="14.00" fill="#000000">Is your input</text>
<text text-anchor="middle" x="700.6729" y="-744.8" font-family="Times,serif" font-size="14.00" fill="#000000">a recursive type?</text>
</g>
<!-- decision1_1 -->
<g id="node2" class="node">
<title>decision1_1</title>
<polygon fill="none" stroke="#000000" points="580.6729,-670 470.0027,-634 580.6729,-598 691.343,-634 580.6729,-670"/>
<text text-anchor="middle" x="580.6729" y="-636.8" font-family="Times,serif" font-size="14.00" fill="#000000">Is your output</text>
<text text-anchor="middle" x="580.6729" y="-622.8" font-family="Times,serif" font-size="14.00" fill="#000000">a recursive type?</text>
</g>
<!-- decision1&#45;&gt;decision1_1 -->
<g id="edge2" class="edge">
<title>decision1&#45;&gt;decision1_1</title>
<path fill="none" stroke="#000000" d="M673.7425,-728.6208C656.2954,-710.883 633.4231,-687.6294 614.719,-668.6136"/>
<polygon fill="#000000" stroke="#000000" points="617.021,-665.9627 607.5133,-661.2878 612.0305,-670.8714 617.021,-665.9627"/>
<text text-anchor="middle" x="654.0039" y="-690.8" font-family="Times,serif" font-size="14.00" fill="#000000">yes</text>
</g>
<!-- decision1_2 -->
<g id="node3" class="node">
<title>decision1_2</title>
<polygon fill="none" stroke="#000000" points="820.6729,-670 710.0027,-634 820.6729,-598 931.343,-634 820.6729,-670"/>
<text text-anchor="middle" x="820.6729" y="-636.8" font-family="Times,serif" font-size="14.00" fill="#000000">Is your output</text>
<text text-anchor="middle" x="820.6729" y="-622.8" font-family="Times,serif" font-size="14.00" fill="#000000">a recursive type?</text>
</g>
<!-- decision1&#45;&gt;decision1_2 -->
<g id="edge3" class="edge">
<title>decision1&#45;&gt;decision1_2</title>
<path fill="none" stroke="#000000" d="M727.6032,-728.6208C745.0503,-710.883 767.9226,-687.6294 786.6267,-668.6136"/>
<polygon fill="#000000" stroke="#000000" points="789.3152,-670.8714 793.8324,-661.2878 784.3247,-665.9627 789.3152,-670.8714"/>
<text text-anchor="middle" x="770.6729" y="-690.8" font-family="Times,serif" font-size="14.00" fill="#000000">no</text>
</g>
<!-- choose_either -->
<g id="node4" class="node">
<title>choose_either</title>
<ellipse fill="none" stroke="#000000" cx="638.6729" cy="-530" rx="53.1367" ry="18"/>
<text text-anchor="middle" x="638.6729" y="-525.8" font-family="Times,serif" font-size="14.00" fill="#000000">I feel lucky!</text>
</g>
<!-- decision1_1&#45;&gt;choose_either -->
<g id="edge4" class="edge">
<title>decision1_1&#45;&gt;choose_either</title>
<path fill="none" stroke="#000000" d="M597.7611,-603.3591C606.0391,-588.5156 615.8846,-570.8618 623.8425,-556.5923"/>
<polygon fill="#000000" stroke="#000000" points="626.9501,-558.2059 628.7641,-547.7674 620.8366,-554.7963 626.9501,-558.2059"/>
<text text-anchor="middle" x="628.0039" y="-568.8" font-family="Times,serif" font-size="14.00" fill="#000000">yes</text>
</g>
<!-- start_folds -->
<g id="node5" class="node">
<title>start_folds</title>
<ellipse fill="none" stroke="#000000" cx="553.6729" cy="-457" rx="49.2946" ry="18"/>
<text text-anchor="middle" x="553.6729" y="-452.8" font-family="Times,serif" font-size="14.00" fill="#000000">Use a fold!</text>
</g>
<!-- decision1_1&#45;&gt;start_folds -->
<g id="edge5" class="edge">
<title>decision1_1&#45;&gt;start_folds</title>
<path fill="none" stroke="#000000" d="M572.7309,-600.2514C569.2398,-584.4543 565.3369,-565.3387 562.6729,-548 559.4633,-527.1106 557.158,-503.3388 555.6845,-485.3312"/>
<polygon fill="#000000" stroke="#000000" points="559.1614,-484.8982 554.8931,-475.2012 552.1827,-485.4434 559.1614,-484.8982"/>
<text text-anchor="middle" x="569.6729" y="-525.8" font-family="Times,serif" font-size="14.00" fill="#000000">no</text>
</g>
<!-- start_unfolds -->
<g id="node6" class="node">
<title>start_unfolds</title>
<ellipse fill="none" stroke="#000000" cx="753.6729" cy="-457" rx="62.8252" ry="18"/>
<text text-anchor="middle" x="753.6729" y="-452.8" font-family="Times,serif" font-size="14.00" fill="#000000">Use an unfold!</text>
</g>
<!-- decision1_2&#45;&gt;start_unfolds -->
<g id="edge6" class="edge">
<title>decision1_2&#45;&gt;start_unfolds</title>
<path fill="none" stroke="#000000" d="M796.5278,-605.7076C784.3448,-589.7983 770.5797,-568.9659 763.0107,-548 755.7078,-527.7707 753.5182,-503.479 753.0757,-485.0836"/>
<polygon fill="#000000" stroke="#000000" points="756.575,-484.9797 752.9916,-475.0093 749.5753,-485.0382 756.575,-484.9797"/>
<text text-anchor="middle" x="772.0039" y="-525.8" font-family="Times,serif" font-size="14.00" fill="#000000">yes</text>
</g>
<!-- start_refolds -->
<g id="node7" class="node">
<title>start_refolds</title>
<ellipse fill="none" stroke="#000000" cx="846.6729" cy="-530" rx="56.0355" ry="18"/>
<text text-anchor="middle" x="846.6729" y="-525.8" font-family="Times,serif" font-size="14.00" fill="#000000">Use a refold!</text>
</g>
<!-- decision1_2&#45;&gt;start_refolds -->
<g id="edge7" class="edge">
<title>decision1_2&#45;&gt;start_refolds</title>
<path fill="none" stroke="#000000" d="M829.0425,-600.5213C832.4863,-586.7461 836.4288,-570.9762 839.7111,-557.8471"/>
<polygon fill="#000000" stroke="#000000" points="843.1498,-558.5229 842.1797,-547.9726 836.3588,-556.8251 843.1498,-558.5229"/>
<text text-anchor="middle" x="843.6729" y="-568.8" font-family="Times,serif" font-size="14.00" fill="#000000">no</text>
</g>
<!-- choose_either&#45;&gt;start_folds -->
<g id="edge8" class="edge">
<title>choose_either&#45;&gt;start_folds</title>
<path fill="none" stroke="#000000" d="M618.9585,-513.0688C607.6135,-503.3255 593.1931,-490.9409 580.7922,-480.2907"/>
<polygon fill="#000000" stroke="#000000" points="582.8539,-477.4477 572.9872,-473.5877 578.2932,-482.7581 582.8539,-477.4477"/>
</g>
<!-- choose_either&#45;&gt;start_unfolds -->
<g id="edge9" class="edge">
<title>choose_either&#45;&gt;start_unfolds</title>
<path fill="none" stroke="#000000" d="M663.9101,-513.9798C680.0128,-503.7581 701.1066,-490.3681 718.7997,-479.1368"/>
<polygon fill="#000000" stroke="#000000" points="721.1307,-481.8028 727.6977,-473.4886 717.3792,-475.893 721.1307,-481.8028"/>
</g>
<!-- fold1 -->
<g id="node8" class="node">
<title>fold1</title>
<polygon fill="none" stroke="#000000" points="397.6729,-402 220.1549,-366 397.6729,-330 575.1908,-366 397.6729,-402"/>
<text text-anchor="middle" x="397.6729" y="-368.8" font-family="Times,serif" font-size="14.00" fill="#000000">Do you only combine results</text>
<text text-anchor="middle" x="397.6729" y="-354.8" font-family="Times,serif" font-size="14.00" fill="#000000">from recursive calls?</text>
</g>
<!-- start_folds&#45;&gt;fold1 -->
<g id="edge10" class="edge">
<title>start_folds&#45;&gt;fold1</title>
<path fill="none" stroke="#000000" d="M527.2096,-441.5631C506.7586,-429.6333 477.752,-412.7128 452.3703,-397.9068"/>
<polygon fill="#000000" stroke="#000000" points="453.9649,-394.7851 443.5636,-392.7696 450.4378,-400.8316 453.9649,-394.7851"/>
</g>
<!-- unfold1 -->
<g id="node12" class="node">
<title>unfold1</title>
<polygon fill="none" stroke="#000000" points="779.6729,-402 593.6062,-366 779.6729,-330 965.7395,-366 779.6729,-402"/>
<text text-anchor="middle" x="779.6729" y="-368.8" font-family="Times,serif" font-size="14.00" fill="#000000">Do you only generate subtrees</text>
<text text-anchor="middle" x="779.6729" y="-354.8" font-family="Times,serif" font-size="14.00" fill="#000000">by making recursive calls?</text>
</g>
<!-- start_unfolds&#45;&gt;unfold1 -->
<g id="edge19" class="edge">
<title>start_unfolds&#45;&gt;unfold1</title>
<path fill="none" stroke="#000000" d="M758.8096,-439.0213C761.2096,-430.6213 764.1824,-420.2166 767.1243,-409.92"/>
<polygon fill="#000000" stroke="#000000" points="770.5338,-410.7268 769.9157,-400.15 763.8031,-408.8037 770.5338,-410.7268"/>
</g>
<!-- fold2 -->
<g id="node9" class="node">
<title>fold2</title>
<polygon fill="none" stroke="#000000" points="130.6729,-280 -.1731,-244 130.6729,-208 261.5188,-244 130.6729,-280"/>
<text text-anchor="middle" x="130.6729" y="-246.8" font-family="Times,serif" font-size="14.00" fill="#000000">Only from</text>
<text text-anchor="middle" x="130.6729" y="-232.8" font-family="Times,serif" font-size="14.00" fill="#000000">immediate children?</text>
</g>
<!-- fold1&#45;&gt;fold2 -->
<g id="edge11" class="edge">
<title>fold1&#45;&gt;fold2</title>
<path fill="none" stroke="#000000" d="M342.9971,-341.0171C298.1787,-320.5383 234.8941,-291.6217 189.0873,-270.6912"/>
<polygon fill="#000000" stroke="#000000" points="190.4306,-267.457 179.8805,-266.4844 187.5214,-273.8239 190.4306,-267.457"/>
<text text-anchor="middle" x="282.0039" y="-300.8" font-family="Times,serif" font-size="14.00" fill="#000000">yes</text>
</g>
<!-- fold3 -->
<g id="node10" class="node">
<title>fold3</title>
<polygon fill="none" stroke="#000000" points="422.6729,-280 279.4169,-244 422.6729,-208 565.9288,-244 422.6729,-280"/>
<text text-anchor="middle" x="422.6729" y="-246.8" font-family="Times,serif" font-size="14.00" fill="#000000">Only that and examine</text>
<text text-anchor="middle" x="422.6729" y="-232.8" font-family="Times,serif" font-size="14.00" fill="#000000">the original subtrees?</text>
</g>
<!-- fold1&#45;&gt;fold3 -->
<g id="edge12" class="edge">
<title>fold1&#45;&gt;fold3</title>
<path fill="none" stroke="#000000" d="M404.77,-331.366C407.5114,-317.9878 410.6822,-302.5145 413.5866,-288.3408"/>
<polygon fill="#000000" stroke="#000000" points="417.0657,-288.7974 415.6445,-278.2983 410.2082,-287.3921 417.0657,-288.7974"/>
<text text-anchor="middle" x="418.6729" y="-300.8" font-family="Times,serif" font-size="14.00" fill="#000000">no</text>
</g>
<!-- cata -->
<g id="node16" class="node">
<title>cata</title>
<ellipse fill="none" stroke="#000000" cx="61.6729" cy="-122" rx="43.4979" ry="18"/>
<text text-anchor="middle" x="61.6729" y="-117.8" font-family="Times,serif" font-size="14.00" fill="#000000">Use cata!</text>
</g>
<!-- fold2&#45;&gt;cata -->
<g id="edge13" class="edge">
<title>fold2&#45;&gt;cata</title>
<path fill="none" stroke="#000000" d="M112.9036,-212.582C101.6995,-192.7718 87.3891,-167.4693 76.7422,-148.6444"/>
<polygon fill="#000000" stroke="#000000" points="79.6617,-146.6967 71.6922,-139.7154 73.5687,-150.1427 79.6617,-146.6967"/>
<text text-anchor="middle" x="108.0039" y="-178.8" font-family="Times,serif" font-size="14.00" fill="#000000">yes</text>
</g>
<!-- histo -->
<g id="node17" class="node">
<title>histo</title>
<ellipse fill="none" stroke="#000000" cx="168.6729" cy="-122" rx="46.4305" ry="18"/>
<text text-anchor="middle" x="168.6729" y="-117.8" font-family="Times,serif" font-size="14.00" fill="#000000">Use histo!</text>
</g>
<!-- fold2&#45;&gt;histo -->
<g id="edge14" class="edge">
<title>fold2&#45;&gt;histo</title>
<path fill="none" stroke="#000000" d="M141.0565,-210.663C146.9992,-191.584 154.3685,-167.9244 159.9996,-149.8457"/>
<polygon fill="#000000" stroke="#000000" points="163.3773,-150.7707 163.0095,-140.1823 156.694,-148.689 163.3773,-150.7707"/>
<text text-anchor="middle" x="158.6729" y="-178.8" font-family="Times,serif" font-size="14.00" fill="#000000">no</text>
</g>
<!-- fold4 -->
<g id="node11" class="node">
<title>fold4</title>
<polygon fill="none" stroke="#000000" points="362.6729,-158 242.2584,-122 362.6729,-86 483.0873,-122 362.6729,-158"/>
<text text-anchor="middle" x="362.6729" y="-124.8" font-family="Times,serif" font-size="14.00" fill="#000000">What do you do to</text>
<text text-anchor="middle" x="362.6729" y="-110.8" font-family="Times,serif" font-size="14.00" fill="#000000">each subtree?</text>
</g>
<!-- fold3&#45;&gt;fold4 -->
<g id="edge15" class="edge">
<title>fold3&#45;&gt;fold4</title>
<path fill="none" stroke="#000000" d="M406.9086,-211.9459C399.4783,-196.8378 390.5314,-178.6458 382.6337,-162.5872"/>
<polygon fill="#000000" stroke="#000000" points="385.6783,-160.8469 378.1243,-153.418 379.3969,-163.9362 385.6783,-160.8469"/>
<text text-anchor="middle" x="404.0039" y="-178.8" font-family="Times,serif" font-size="14.00" fill="#000000">yes</text>
</g>
<!-- gcata -->
<g id="node15" class="node">
<title>gcata</title>
<ellipse fill="none" stroke="#000000" cx="581.6729" cy="-122" rx="80.1118" ry="35.2113"/>
<text text-anchor="middle" x="581.6729" y="-131.8" font-family="Times,serif" font-size="14.00" fill="#000000">Write your own</text>
<text text-anchor="middle" x="581.6729" y="-117.8" font-family="Times,serif" font-size="14.00" fill="#000000">recursion scheme</text>
<text text-anchor="middle" x="581.6729" y="-103.8" font-family="Times,serif" font-size="14.00" fill="#000000">(using gcata)!</text>
</g>
<!-- fold3&#45;&gt;gcata -->
<g id="edge16" class="edge">
<title>fold3&#45;&gt;gcata</title>
<path fill="none" stroke="#000000" d="M458.3556,-216.6208C480.5659,-199.5789 509.4117,-177.4456 533.6198,-158.8709"/>
<polygon fill="#000000" stroke="#000000" points="535.8324,-161.5848 541.6355,-152.7205 531.5712,-156.0312 535.8324,-161.5848"/>
<text text-anchor="middle" x="514.6729" y="-178.8" font-family="Times,serif" font-size="14.00" fill="#000000">no</text>
</g>
<!-- zygo -->
<g id="node18" class="node">
<title>zygo</title>
<ellipse fill="none" stroke="#000000" cx="308.6729" cy="-18" rx="46.4132" ry="18"/>
<text text-anchor="middle" x="308.6729" y="-13.8" font-family="Times,serif" font-size="14.00" fill="#000000">Use zygo!</text>
</g>
<!-- fold4&#45;&gt;zygo -->
<g id="edge17" class="edge">
<title>fold4&#45;&gt;zygo</title>
<path fill="none" stroke="#000000" d="M345.7788,-90.9598C341.7573,-83.4657 337.5113,-75.4654 333.6416,-68 329.8113,-60.6106 325.7445,-52.5593 322.0296,-45.1193"/>
<polygon fill="#000000" stroke="#000000" points="325.1413,-43.5159 317.5568,-36.1182 318.8726,-46.631 325.1413,-43.5159"/>
<text text-anchor="middle" x="364.1885" y="-56.8" font-family="Times,serif" font-size="14.00" fill="#000000">Apply cata</text>
</g>
<!-- para -->
<g id="node19" class="node">
<title>para</title>
<ellipse fill="none" stroke="#000000" cx="416.6729" cy="-18" rx="44.4667" ry="18"/>
<text text-anchor="middle" x="416.6729" y="-13.8" font-family="Times,serif" font-size="14.00" fill="#000000">Use para!</text>
</g>
<!-- fold4&#45;&gt;para -->
<g id="edge18" class="edge">
<title>fold4&#45;&gt;para</title>
<path fill="none" stroke="#000000" d="M381.6004,-91.5192C386.0685,-83.9351 390.6879,-75.7539 394.6729,-68 398.4104,-60.7275 402.1259,-52.6822 405.4101,-45.2096"/>
<polygon fill="#000000" stroke="#000000" points="408.7088,-46.3983 409.4448,-35.8291 402.2784,-43.6324 408.7088,-46.3983"/>
<text text-anchor="middle" x="444.6401" y="-56.8" font-family="Times,serif" font-size="14.00" fill="#000000">Something else</text>
</g>
<!-- unfold2 -->
<g id="node13" class="node">
<title>unfold2</title>
<polygon fill="none" stroke="#000000" points="741.6729,-280 604.8583,-244 741.6729,-208 878.4874,-244 741.6729,-280"/>
<text text-anchor="middle" x="741.6729" y="-246.8" font-family="Times,serif" font-size="14.00" fill="#000000">Do you only generate</text>
<text text-anchor="middle" x="741.6729" y="-232.8" font-family="Times,serif" font-size="14.00" fill="#000000">1 layer at a time?</text>
</g>
<!-- unfold1&#45;&gt;unfold2 -->
<g id="edge20" class="edge">
<title>unfold1&#45;&gt;unfold2</title>
<path fill="none" stroke="#000000" d="M768.423,-332.0513C766.2642,-325.412 764.0439,-318.4952 762.0107,-312 759.5246,-304.0577 756.9347,-295.5731 754.4688,-287.3852"/>
<polygon fill="#000000" stroke="#000000" points="757.7604,-286.1762 751.5378,-277.6012 751.0548,-288.185 757.7604,-286.1762"/>
<text text-anchor="middle" x="771.0039" y="-300.8" font-family="Times,serif" font-size="14.00" fill="#000000">yes</text>
</g>
<!-- unfold3 -->
<g id="node14" class="node">
<title>unfold3</title>
<polygon fill="none" stroke="#000000" points="1060.6729,-280 896.124,-244 1060.6729,-208 1225.2217,-244 1060.6729,-280"/>
<text text-anchor="middle" x="1060.6729" y="-246.8" font-family="Times,serif" font-size="14.00" fill="#000000">Only that and by returning</text>
<text text-anchor="middle" x="1060.6729" y="-232.8" font-family="Times,serif" font-size="14.00" fill="#000000">pre&#45;built subtrees?</text>
</g>
<!-- unfold1&#45;&gt;unfold3 -->
<g id="edge21" class="edge">
<title>unfold1&#45;&gt;unfold3</title>
<path fill="none" stroke="#000000" d="M837.2155,-341.0171C883.2781,-321.0184 947.8747,-292.9729 995.7752,-272.1762"/>
<polygon fill="#000000" stroke="#000000" points="997.3433,-275.3111 1005.1222,-268.1181 994.5555,-268.8901 997.3433,-275.3111"/>
<text text-anchor="middle" x="934.6729" y="-300.8" font-family="Times,serif" font-size="14.00" fill="#000000">no</text>
</g>
<!-- ana -->
<g id="node20" class="node">
<title>ana</title>
<ellipse fill="none" stroke="#000000" cx="726.6729" cy="-122" rx="41.0767" ry="18"/>
<text text-anchor="middle" x="726.6729" y="-117.8" font-family="Times,serif" font-size="14.00" fill="#000000">Use ana!</text>
</g>
<!-- unfold2&#45;&gt;ana -->
<g id="edge22" class="edge">
<title>unfold2&#45;&gt;ana</title>
<path fill="none" stroke="#000000" d="M737.3745,-209.0397C735.0803,-190.3806 732.2941,-167.7198 730.1398,-150.1982"/>
<polygon fill="#000000" stroke="#000000" points="733.5844,-149.5325 728.8902,-140.0343 726.6368,-150.3867 733.5844,-149.5325"/>
<text text-anchor="middle" x="744.0039" y="-178.8" font-family="Times,serif" font-size="14.00" fill="#000000">yes</text>
</g>
<!-- futu -->
<g id="node22" class="node">
<title>futu</title>
<ellipse fill="none" stroke="#000000" cx="829.6729" cy="-122" rx="43.0237" ry="18"/>
<text text-anchor="middle" x="829.6729" y="-117.8" font-family="Times,serif" font-size="14.00" fill="#000000">Use futu!</text>
</g>
<!-- unfold2&#45;&gt;futu -->
<g id="edge23" class="edge">
<title>unfold2&#45;&gt;futu</title>
<path fill="none" stroke="#000000" d="M763.652,-213.529C778.3087,-193.2093 797.3578,-166.8004 811.225,-147.5754"/>
<polygon fill="#000000" stroke="#000000" points="814.1859,-149.4534 817.1974,-139.2955 808.5087,-145.3583 814.1859,-149.4534"/>
<text text-anchor="middle" x="794.6729" y="-178.8" font-family="Times,serif" font-size="14.00" fill="#000000">no</text>
</g>
<!-- apo -->
<g id="node21" class="node">
<title>apo</title>
<ellipse fill="none" stroke="#000000" cx="934.6729" cy="-122" rx="41.5699" ry="18"/>
<text text-anchor="middle" x="934.6729" y="-117.8" font-family="Times,serif" font-size="14.00" fill="#000000">Use apo!</text>
</g>
<!-- unfold3&#45;&gt;apo -->
<g id="edge24" class="edge">
<title>unfold3&#45;&gt;apo</title>
<path fill="none" stroke="#000000" d="M1030.1718,-214.4672C1008.3432,-193.3316 979.3465,-165.2555 959.0536,-145.6068"/>
<polygon fill="#000000" stroke="#000000" points="961.3542,-142.9625 951.7354,-138.5209 956.4849,-147.9915 961.3542,-142.9625"/>
<text text-anchor="middle" x="1010.0039" y="-178.8" font-family="Times,serif" font-size="14.00" fill="#000000">yes</text>
</g>
<!-- gana -->
<g id="node23" class="node">
<title>gana</title>
<ellipse fill="none" stroke="#000000" cx="1074.6729" cy="-122" rx="80.1118" ry="35.2113"/>
<text text-anchor="middle" x="1074.6729" y="-131.8" font-family="Times,serif" font-size="14.00" fill="#000000">Write your own</text>
<text text-anchor="middle" x="1074.6729" y="-117.8" font-family="Times,serif" font-size="14.00" fill="#000000">recursion scheme</text>
<text text-anchor="middle" x="1074.6729" y="-103.8" font-family="Times,serif" font-size="14.00" fill="#000000">(using gana)!</text>
</g>
<!-- unfold3&#45;&gt;gana -->
<g id="edge25" class="edge">
<title>unfold3&#45;&gt;gana</title>
<path fill="none" stroke="#000000" d="M1064.7222,-208.7125C1066.1895,-195.9266 1067.8684,-181.2958 1069.4241,-167.7395"/>
<polygon fill="#000000" stroke="#000000" points="1072.9211,-167.9647 1070.5841,-157.6308 1065.9667,-167.1666 1072.9211,-167.9647"/>
<text text-anchor="middle" x="1074.6729" y="-178.8" font-family="Times,serif" font-size="14.00" fill="#000000">no</text>
</g>
<!-- start -->
<g id="node24" class="node">
<title>start</title>
<ellipse fill="none" stroke="#000000" cx="700.6729" cy="-847" rx="27" ry="18"/>
<text text-anchor="middle" x="700.6729" y="-842.8" font-family="Times,serif" font-size="14.00" fill="#000000">start</text>
</g>
<!-- start&#45;&gt;decision1 -->
<g id="edge1" class="edge">
<title>start&#45;&gt;decision1</title>
<path fill="none" stroke="#000000" d="M700.6729,-828.5848C700.6729,-820.8806 700.6729,-811.5476 700.6729,-802.1763"/>
<polygon fill="#000000" stroke="#000000" points="704.173,-802.0677 700.6729,-792.0677 697.173,-802.0677 704.173,-802.0677"/>
</g>
</g>
</svg>
