<?xml version="1.0" encoding="UTF-8" standalone="no"?>
<!DOCTYPE svg PUBLIC "-//W3C//DTD SVG 1.1//EN"
 "http://www.w3.org/Graphics/SVG/1.1/DTD/svg11.dtd">
<!-- Generated by graphviz version 2.43.0 (0)
 -->
<!-- Title: %3 Pages: 1 -->
<svg width="1555pt" height="1039pt"
 viewBox="0.00 0.00 1555.00 1039.00" xmlns="http://www.w3.org/2000/svg" xmlns:xlink="http://www.w3.org/1999/xlink">
<g id="graph0" class="graph" transform="scale(1 1) rotate(0) translate(4 1035)">
<title>%3</title>
<polygon fill="white" stroke="transparent" points="-4,4 -4,-1035 1551,-1035 1551,4 -4,4"/>
<!-- decision1 -->
<g id="node1" class="node">
<title>decision1</title>
<polygon fill="none" stroke="black" points="1114,-831 974,-793 1114,-755 1254,-793 1114,-831"/>
<text text-anchor="middle" x="1114" y="-796.8" font-family="Times,serif" font-size="14.00">Is your input</text>
<text text-anchor="middle" x="1114" y="-781.8" font-family="Times,serif" font-size="14.00">a recursive type?</text>
</g>
<!-- decision1_1 -->
<g id="node2" class="node">
<title>decision1_1</title>
<polygon fill="none" stroke="black" points="723,-704 583,-666 723,-628 863,-666 723,-704"/>
<text text-anchor="middle" x="723" y="-669.8" font-family="Times,serif" font-size="14.00">Is your output</text>
<text text-anchor="middle" x="723" y="-654.8" font-family="Times,serif" font-size="14.00">a recursive type?</text>
</g>
<!-- decision1&#45;&gt;decision1_1 -->
<g id="edge4" class="edge">
<title>decision1&#45;&gt;decision1_1</title>
<path fill="none" stroke="black" d="M1038.7,-775.24C997.13,-765.36 944.8,-751.9 899,-737 860.58,-724.5 818.49,-707.87 785.11,-693.96"/>
<polygon fill="black" stroke="black" points="786.07,-690.57 775.5,-689.93 783.36,-697.02 786.07,-690.57"/>
<text text-anchor="middle" x="911.5" y="-725.8" font-family="Times,serif" font-size="14.00">yes</text>
</g>
<!-- decision1_2 -->
<g id="node3" class="node">
<title>decision1_2</title>
<polygon fill="none" stroke="black" points="1120,-704 980,-666 1120,-628 1260,-666 1120,-704"/>
<text text-anchor="middle" x="1120" y="-669.8" font-family="Times,serif" font-size="14.00">Is your output</text>
<text text-anchor="middle" x="1120" y="-654.8" font-family="Times,serif" font-size="14.00">a recursive type?</text>
</g>
<!-- decision1&#45;&gt;decision1_2 -->
<g id="edge5" class="edge">
<title>decision1&#45;&gt;decision1_2</title>
<path fill="none" stroke="black" d="M1115.77,-755.17C1116.39,-742.2 1117.1,-727.45 1117.76,-713.77"/>
<polygon fill="black" stroke="black" points="1121.26,-713.72 1118.24,-703.56 1114.27,-713.39 1121.26,-713.72"/>
<text text-anchor="middle" x="1126" y="-725.8" font-family="Times,serif" font-size="14.00">no</text>
</g>
<!-- choose_either -->
<g id="node4" class="node">
<title>choose_either</title>
<ellipse fill="none" stroke="black" cx="723" cy="-559" rx="65.79" ry="18"/>
<text text-anchor="middle" x="723" y="-555.3" font-family="Times,serif" font-size="14.00">I feel lucky!</text>
</g>
<!-- decision1_1&#45;&gt;choose_either -->
<g id="edge6" class="edge">
<title>decision1_1&#45;&gt;choose_either</title>
<path fill="none" stroke="black" d="M723,-627.98C723,-614.56 723,-599.65 723,-587.22"/>
<polygon fill="black" stroke="black" points="726.5,-587.04 723,-577.04 719.5,-587.04 726.5,-587.04"/>
<text text-anchor="middle" x="735.5" y="-598.8" font-family="Times,serif" font-size="14.00">yes</text>
</g>
<!-- start_folds -->
<g id="node5" class="node">
<title>start_folds</title>
<ellipse fill="none" stroke="black" cx="676" cy="-472" rx="61.99" ry="18"/>
<text text-anchor="middle" x="676" y="-468.3" font-family="Times,serif" font-size="14.00">Use a fold!</text>
</g>
<!-- decision1_1&#45;&gt;start_folds -->
<g id="edge7" class="edge">
<title>decision1_1&#45;&gt;start_folds</title>
<path fill="none" stroke="black" d="M682.53,-638.76C662.7,-623.41 640.81,-602.11 630,-577 618.22,-549.62 636.33,-518.37 653.17,-497.33"/>
<polygon fill="black" stroke="black" points="655.98,-499.43 659.74,-489.53 650.62,-494.92 655.98,-499.43"/>
<text text-anchor="middle" x="639" y="-555.3" font-family="Times,serif" font-size="14.00">no</text>
</g>
<!-- start_unfolds -->
<g id="node6" class="node">
<title>start_unfolds</title>
<ellipse fill="none" stroke="black" cx="957" cy="-472" rx="79.09" ry="18"/>
<text text-anchor="middle" x="957" y="-468.3" font-family="Times,serif" font-size="14.00">Use an unfold!</text>
</g>
<!-- decision1_2&#45;&gt;start_unfolds -->
<g id="edge8" class="edge">
<title>decision1_2&#45;&gt;start_unfolds</title>
<path fill="none" stroke="black" d="M1127.3,-629.91C1132.43,-594.76 1133.97,-541.23 1105,-508 1095.22,-496.78 1065.32,-488.65 1034.94,-483.07"/>
<polygon fill="black" stroke="black" points="1035.54,-479.62 1025.08,-481.34 1034.33,-486.51 1035.54,-479.62"/>
<text text-anchor="middle" x="1141.5" y="-555.3" font-family="Times,serif" font-size="14.00">yes</text>
</g>
<!-- start_refolds -->
<g id="node7" class="node">
<title>start_refolds</title>
<ellipse fill="none" stroke="black" cx="1190" cy="-472" rx="71.49" ry="18"/>
<text text-anchor="middle" x="1190" y="-468.3" font-family="Times,serif" font-size="14.00">Use a refold!</text>
</g>
<!-- decision1_2&#45;&gt;start_refolds -->
<g id="edge9" class="edge">
<title>decision1_2&#45;&gt;start_refolds</title>
<path fill="none" stroke="black" d="M1141.62,-633.74C1159.37,-606.06 1183.12,-563.82 1193,-523 1194.75,-515.76 1195,-507.77 1194.54,-500.34"/>
<polygon fill="black" stroke="black" points="1198.02,-499.94 1193.53,-490.35 1191.06,-500.65 1198.02,-499.94"/>
<text text-anchor="middle" x="1196" y="-555.3" font-family="Times,serif" font-size="14.00">no</text>
</g>
<!-- expert_decision1 -->
<g id="node9" class="node">
<title>expert_decision1</title>
<polygon fill="none" stroke="black" points="946,-577 806.08,-559 946,-541 1085.92,-559 946,-577"/>
<text text-anchor="middle" x="946" y="-555.3" font-family="Times,serif" font-size="14.00">What is the shape?</text>
</g>
<!-- decision1_2&#45;&gt;expert_decision1 -->
<!-- choose_either&#45;&gt;start_folds -->
<g id="edge10" class="edge">
<title>choose_either&#45;&gt;start_folds</title>
<path fill="none" stroke="black" d="M713.49,-540.8C706.82,-528.74 697.79,-512.4 690.26,-498.79"/>
<polygon fill="black" stroke="black" points="693.24,-496.94 685.34,-489.89 687.11,-500.33 693.24,-496.94"/>
</g>
<!-- choose_either&#45;&gt;start_unfolds -->
<g id="edge11" class="edge">
<title>choose_either&#45;&gt;start_unfolds</title>
<path fill="none" stroke="black" d="M771.1,-546.64C779.71,-544.69 788.61,-542.74 797,-541 839.93,-532.09 854.09,-541.17 894,-523 908.22,-516.53 922.04,-506.17 933.09,-496.55"/>
<polygon fill="black" stroke="black" points="935.55,-499.05 940.62,-489.75 930.85,-493.86 935.55,-499.05"/>
</g>
<!-- fold1 -->
<g id="node10" class="node">
<title>fold1</title>
<polygon fill="none" stroke="black" points="489,-417 270,-379 489,-341 708,-379 489,-417"/>
<text text-anchor="middle" x="489" y="-382.8" font-family="Times,serif" font-size="14.00">Do you only combine results</text>
<text text-anchor="middle" x="489" y="-367.8" font-family="Times,serif" font-size="14.00">from recursive calls?</text>
</g>
<!-- start_folds&#45;&gt;fold1 -->
<g id="edge12" class="edge">
<title>start_folds&#45;&gt;fold1</title>
<path fill="none" stroke="black" d="M645.54,-456.18C620.86,-444.17 585.21,-426.82 554.17,-411.71"/>
<polygon fill="black" stroke="black" points="555.65,-408.54 545.12,-407.31 552.58,-414.83 555.65,-408.54"/>
</g>
<!-- unfold1 -->
<g id="node14" class="node">
<title>unfold1</title>
<polygon fill="none" stroke="black" points="962,-417 726,-379 962,-341 1198,-379 962,-417"/>
<text text-anchor="middle" x="962" y="-382.8" font-family="Times,serif" font-size="14.00">Do you only generate subtrees</text>
<text text-anchor="middle" x="962" y="-367.8" font-family="Times,serif" font-size="14.00">by making recursive calls?</text>
</g>
<!-- start_unfolds&#45;&gt;unfold1 -->
<g id="edge21" class="edge">
<title>start_unfolds&#45;&gt;unfold1</title>
<path fill="none" stroke="black" d="M957.94,-453.88C958.36,-446.16 958.89,-436.63 959.42,-427.01"/>
<polygon fill="black" stroke="black" points="962.91,-427.2 959.97,-417.02 955.92,-426.81 962.91,-427.2"/>
</g>
<!-- decision0 -->
<g id="node8" class="node">
<title>decision0</title>
<polygon fill="none" stroke="black" points="962,-958 724,-920 962,-882 1200,-920 962,-958"/>
<text text-anchor="middle" x="962" y="-923.8" font-family="Times,serif" font-size="14.00">Do you know which shape your</text>
<text text-anchor="middle" x="962" y="-908.8" font-family="Times,serif" font-size="14.00">function&#39;s recursion will have?</text>
</g>
<!-- decision0&#45;&gt;decision1 -->
<g id="edge2" class="edge">
<title>decision0&#45;&gt;decision1</title>
<path fill="none" stroke="black" d="M999.96,-887.78C1021.99,-869.67 1049.75,-846.83 1072.37,-828.23"/>
<polygon fill="black" stroke="black" points="1074.64,-830.9 1080.14,-821.84 1070.2,-825.49 1074.64,-830.9"/>
<text text-anchor="middle" x="1056" y="-852.8" font-family="Times,serif" font-size="14.00">no</text>
</g>
<!-- decision0&#45;&gt;expert_decision1 -->
<g id="edge3" class="edge">
<title>decision0&#45;&gt;expert_decision1</title>
<path fill="none" stroke="black" d="M960.35,-881.93C957.12,-809.45 950.03,-650.49 947.2,-586.99"/>
<polygon fill="black" stroke="black" points="950.7,-586.8 946.76,-576.96 943.7,-587.11 950.7,-586.8"/>
<text text-anchor="middle" x="966.5" y="-725.8" font-family="Times,serif" font-size="14.00">yes</text>
</g>
<!-- expert_decision1&#45;&gt;start_folds -->
<g id="edge28" class="edge">
<title>expert_decision1&#45;&gt;start_folds</title>
<path fill="none" stroke="black" d="M897.72,-547.18C871.06,-540.85 837.47,-532.28 808,-523 778.05,-513.56 745.02,-501.05 719.48,-490.9"/>
<polygon fill="black" stroke="black" points="720.67,-487.61 710.09,-487.14 718.07,-494.1 720.67,-487.61"/>
<text text-anchor="middle" x="877.5" y="-511.8" font-family="Times,serif" font-size="14.00">Same as input type</text>
</g>
<!-- expert_decision1&#45;&gt;start_unfolds -->
<g id="edge29" class="edge">
<title>expert_decision1&#45;&gt;start_unfolds</title>
<path fill="none" stroke="black" d="M948.17,-541.21C949.69,-529.52 951.73,-513.69 953.48,-500.22"/>
<polygon fill="black" stroke="black" points="956.98,-500.42 954.79,-490.05 950.04,-499.52 956.98,-500.42"/>
<text text-anchor="middle" x="1027" y="-511.8" font-family="Times,serif" font-size="14.00">Same as output type</text>
</g>
<!-- expert_decision1&#45;&gt;start_refolds -->
<g id="edge30" class="edge">
<title>expert_decision1&#45;&gt;start_refolds</title>
<path fill="none" stroke="black" d="M1008.5,-548.94C1038.36,-543.44 1074.22,-535.09 1105,-523 1123.65,-515.68 1143.01,-504.6 1158.54,-494.73"/>
<polygon fill="black" stroke="black" points="1160.73,-497.48 1167.2,-489.1 1156.91,-491.61 1160.73,-497.48"/>
<text text-anchor="middle" x="1161.5" y="-511.8" font-family="Times,serif" font-size="14.00">Neither</text>
</g>
<!-- fold2 -->
<g id="node11" class="node">
<title>fold2</title>
<polygon fill="none" stroke="black" points="163,-290 0,-252 163,-214 326,-252 163,-290"/>
<text text-anchor="middle" x="163" y="-255.8" font-family="Times,serif" font-size="14.00">Only from</text>
<text text-anchor="middle" x="163" y="-240.8" font-family="Times,serif" font-size="14.00">immediate children?</text>
</g>
<!-- fold1&#45;&gt;fold2 -->
<g id="edge13" class="edge">
<title>fold1&#45;&gt;fold2</title>
<path fill="none" stroke="black" d="M422.24,-352.4C366.95,-331.2 288.64,-301.17 232.58,-279.68"/>
<polygon fill="black" stroke="black" points="233.67,-276.35 223.08,-276.04 231.17,-282.89 233.67,-276.35"/>
<text text-anchor="middle" x="358.5" y="-311.8" font-family="Times,serif" font-size="14.00">yes</text>
</g>
<!-- fold3 -->
<g id="node12" class="node">
<title>fold3</title>
<polygon fill="none" stroke="black" points="523,-290 344,-252 523,-214 702,-252 523,-290"/>
<text text-anchor="middle" x="523" y="-255.8" font-family="Times,serif" font-size="14.00">Only that and examine</text>
<text text-anchor="middle" x="523" y="-240.8" font-family="Times,serif" font-size="14.00">the original subtrees?</text>
</g>
<!-- fold1&#45;&gt;fold3 -->
<g id="edge14" class="edge">
<title>fold1&#45;&gt;fold3</title>
<path fill="none" stroke="black" d="M498.65,-342.51C502.42,-328.67 506.78,-312.65 510.76,-298.01"/>
<polygon fill="black" stroke="black" points="514.19,-298.71 513.44,-288.14 507.44,-296.87 514.19,-298.71"/>
<text text-anchor="middle" x="518" y="-311.8" font-family="Times,serif" font-size="14.00">no</text>
</g>
<!-- cata -->
<g id="node18" class="node">
<title>cata</title>
<ellipse fill="none" stroke="black" cx="104" cy="-125" rx="55.49" ry="18"/>
<text text-anchor="middle" x="104" y="-121.3" font-family="Times,serif" font-size="14.00">Use cata!</text>
</g>
<!-- fold2&#45;&gt;cata -->
<g id="edge15" class="edge">
<title>fold2&#45;&gt;cata</title>
<path fill="none" stroke="black" d="M147.19,-217.5C137.54,-197.06 125.38,-171.29 116.42,-152.31"/>
<polygon fill="black" stroke="black" points="119.49,-150.62 112.06,-143.07 113.16,-153.61 119.49,-150.62"/>
<text text-anchor="middle" x="150.5" y="-184.8" font-family="Times,serif" font-size="14.00">yes</text>
</g>
<!-- histo -->
<g id="node19" class="node">
<title>histo</title>
<ellipse fill="none" stroke="black" cx="236" cy="-125" rx="58.49" ry="18"/>
<text text-anchor="middle" x="236" y="-121.3" font-family="Times,serif" font-size="14.00">Use histo!</text>
</g>
<!-- fold2&#45;&gt;histo -->
<g id="edge16" class="edge">
<title>fold2&#45;&gt;histo</title>
<path fill="none" stroke="black" d="M182.18,-218.16C194.31,-197.4 209.75,-170.95 220.98,-151.72"/>
<polygon fill="black" stroke="black" points="224.1,-153.31 226.12,-142.91 218.06,-149.78 224.1,-153.31"/>
<text text-anchor="middle" x="213" y="-184.8" font-family="Times,serif" font-size="14.00">no</text>
</g>
<!-- fold4 -->
<g id="node13" class="node">
<title>fold4</title>
<polygon fill="none" stroke="black" points="479,-163 333,-125 479,-87 625,-125 479,-163"/>
<text text-anchor="middle" x="479" y="-128.8" font-family="Times,serif" font-size="14.00">What do you do to</text>
<text text-anchor="middle" x="479" y="-113.8" font-family="Times,serif" font-size="14.00">each subtree?</text>
</g>
<!-- fold3&#45;&gt;fold4 -->
<g id="edge17" class="edge">
<title>fold3&#45;&gt;fold4</title>
<path fill="none" stroke="black" d="M510.86,-216.51C505.77,-202.05 499.79,-185.06 494.39,-169.73"/>
<polygon fill="black" stroke="black" points="497.57,-168.21 490.95,-159.94 490.97,-170.54 497.57,-168.21"/>
<text text-anchor="middle" x="516.5" y="-184.8" font-family="Times,serif" font-size="14.00">yes</text>
</g>
<!-- gcata -->
<g id="node17" class="node">
<title>gcata</title>
<ellipse fill="none" stroke="black" cx="744" cy="-125" rx="101.23" ry="37.45"/>
<text text-anchor="middle" x="744" y="-136.3" font-family="Times,serif" font-size="14.00">Write your own</text>
<text text-anchor="middle" x="744" y="-121.3" font-family="Times,serif" font-size="14.00">recursion scheme</text>
<text text-anchor="middle" x="744" y="-106.3" font-family="Times,serif" font-size="14.00">(using gcata)!</text>
</g>
<!-- fold3&#45;&gt;gcata -->
<g id="edge18" class="edge">
<title>fold3&#45;&gt;gcata</title>
<path fill="none" stroke="black" d="M570.68,-224.03C602.97,-205.77 645.97,-181.45 681.06,-161.6"/>
<polygon fill="black" stroke="black" points="682.82,-164.63 689.8,-156.66 679.37,-158.53 682.82,-164.63"/>
<text text-anchor="middle" x="656" y="-184.8" font-family="Times,serif" font-size="14.00">no</text>
</g>
<!-- zygo -->
<g id="node20" class="node">
<title>zygo</title>
<ellipse fill="none" stroke="black" cx="413" cy="-18" rx="57.39" ry="18"/>
<text text-anchor="middle" x="413" y="-14.3" font-family="Times,serif" font-size="14.00">Use zygo!</text>
</g>
<!-- fold4&#45;&gt;zygo -->
<g id="edge19" class="edge">
<title>fold4&#45;&gt;zygo</title>
<path fill="none" stroke="black" d="M458.84,-91.93C449.32,-76.79 438.12,-58.96 429.17,-44.73"/>
<polygon fill="black" stroke="black" points="431.94,-42.56 423.66,-35.95 426.02,-46.28 431.94,-42.56"/>
<text text-anchor="middle" x="483" y="-57.8" font-family="Times,serif" font-size="14.00">Apply cata</text>
</g>
<!-- para -->
<g id="node21" class="node">
<title>para</title>
<ellipse fill="none" stroke="black" cx="545" cy="-18" rx="56.59" ry="18"/>
<text text-anchor="middle" x="545" y="-14.3" font-family="Times,serif" font-size="14.00">Use para!</text>
</g>
<!-- fold4&#45;&gt;para -->
<g id="edge20" class="edge">
<title>fold4&#45;&gt;para</title>
<path fill="none" stroke="black" d="M505.61,-93.62C511.73,-85.88 517.93,-77.37 523,-69 527.42,-61.7 531.45,-53.35 534.82,-45.6"/>
<polygon fill="black" stroke="black" points="538.12,-46.79 538.72,-36.21 531.65,-44.11 538.12,-46.79"/>
<text text-anchor="middle" x="586.5" y="-57.8" font-family="Times,serif" font-size="14.00">Something else</text>
</g>
<!-- unfold2 -->
<g id="node15" class="node">
<title>unfold2</title>
<polygon fill="none" stroke="black" points="942,-290 773,-252 942,-214 1111,-252 942,-290"/>
<text text-anchor="middle" x="942" y="-255.8" font-family="Times,serif" font-size="14.00">Do you only generate</text>
<text text-anchor="middle" x="942" y="-240.8" font-family="Times,serif" font-size="14.00">1 layer at a time?</text>
</g>
<!-- unfold1&#45;&gt;unfold2 -->
<g id="edge22" class="edge">
<title>unfold1&#45;&gt;unfold2</title>
<path fill="none" stroke="black" d="M956.22,-341.84C954.08,-328.5 951.63,-313.19 949.37,-299.09"/>
<polygon fill="black" stroke="black" points="952.81,-298.4 947.77,-289.07 945.9,-299.5 952.81,-298.4"/>
<text text-anchor="middle" x="966.5" y="-311.8" font-family="Times,serif" font-size="14.00">yes</text>
</g>
<!-- unfold3 -->
<g id="node16" class="node">
<title>unfold3</title>
<polygon fill="none" stroke="black" points="1338,-290 1129,-252 1338,-214 1547,-252 1338,-290"/>
<text text-anchor="middle" x="1338" y="-255.8" font-family="Times,serif" font-size="14.00">Only that and by returning</text>
<text text-anchor="middle" x="1338" y="-240.8" font-family="Times,serif" font-size="14.00">pre&#45;built subtrees?</text>
</g>
<!-- unfold1&#45;&gt;unfold3 -->
<g id="edge23" class="edge">
<title>unfold1&#45;&gt;unfold3</title>
<path fill="none" stroke="black" d="M1037.19,-353C1100.48,-331.96 1190.85,-301.92 1255.99,-280.26"/>
<polygon fill="black" stroke="black" points="1257.43,-283.47 1265.82,-277 1255.22,-276.83 1257.43,-283.47"/>
<text text-anchor="middle" x="1181" y="-311.8" font-family="Times,serif" font-size="14.00">no</text>
</g>
<!-- ana -->
<g id="node22" class="node">
<title>ana</title>
<ellipse fill="none" stroke="black" cx="926" cy="-125" rx="51.99" ry="18"/>
<text text-anchor="middle" x="926" y="-121.3" font-family="Times,serif" font-size="14.00">Use ana!</text>
</g>
<!-- unfold2&#45;&gt;ana -->
<g id="edge24" class="edge">
<title>unfold2&#45;&gt;ana</title>
<path fill="none" stroke="black" d="M937.37,-214.84C934.85,-195.17 931.79,-171.22 929.48,-153.15"/>
<polygon fill="black" stroke="black" points="932.92,-152.49 928.18,-143.01 925.98,-153.38 932.92,-152.49"/>
<text text-anchor="middle" x="947.5" y="-184.8" font-family="Times,serif" font-size="14.00">yes</text>
</g>
<!-- futu -->
<g id="node24" class="node">
<title>futu</title>
<ellipse fill="none" stroke="black" cx="1051" cy="-125" rx="54.69" ry="18"/>
<text text-anchor="middle" x="1051" y="-121.3" font-family="Times,serif" font-size="14.00">Use futu!</text>
</g>
<!-- unfold2&#45;&gt;futu -->
<g id="edge25" class="edge">
<title>unfold2&#45;&gt;futu</title>
<path fill="none" stroke="black" d="M969.22,-219.78C987.96,-198.3 1012.48,-170.17 1029.77,-150.35"/>
<polygon fill="black" stroke="black" points="1032.54,-152.5 1036.47,-142.66 1027.26,-147.9 1032.54,-152.5"/>
<text text-anchor="middle" x="1012" y="-184.8" font-family="Times,serif" font-size="14.00">no</text>
</g>
<!-- apo -->
<g id="node23" class="node">
<title>apo</title>
<ellipse fill="none" stroke="black" cx="1181" cy="-125" rx="51.99" ry="18"/>
<text text-anchor="middle" x="1181" y="-121.3" font-family="Times,serif" font-size="14.00">Use apo!</text>
</g>
<!-- unfold3&#45;&gt;apo -->
<g id="edge26" class="edge">
<title>unfold3&#45;&gt;apo</title>
<path fill="none" stroke="black" d="M1299.99,-220.74C1271.95,-198.41 1234.4,-168.52 1209.04,-148.33"/>
<polygon fill="black" stroke="black" points="1210.95,-145.37 1200.94,-141.88 1206.59,-150.85 1210.95,-145.37"/>
<text text-anchor="middle" x="1280.5" y="-184.8" font-family="Times,serif" font-size="14.00">yes</text>
</g>
<!-- gana -->
<g id="node25" class="node">
<title>gana</title>
<ellipse fill="none" stroke="black" cx="1352" cy="-125" rx="101.23" ry="37.45"/>
<text text-anchor="middle" x="1352" y="-136.3" font-family="Times,serif" font-size="14.00">Write your own</text>
<text text-anchor="middle" x="1352" y="-121.3" font-family="Times,serif" font-size="14.00">recursion scheme</text>
<text text-anchor="middle" x="1352" y="-106.3" font-family="Times,serif" font-size="14.00">(using gana)!</text>
</g>
<!-- unfold3&#45;&gt;gana -->
<g id="edge27" class="edge">
<title>unfold3&#45;&gt;gana</title>
<path fill="none" stroke="black" d="M1342.09,-214.51C1343.54,-201.53 1345.2,-186.73 1346.74,-173"/>
<polygon fill="black" stroke="black" points="1350.25,-173.08 1347.88,-162.75 1343.29,-172.3 1350.25,-173.08"/>
<text text-anchor="middle" x="1354" y="-184.8" font-family="Times,serif" font-size="14.00">no</text>
</g>
<!-- start -->
<g id="node26" class="node">
<title>start</title>
<ellipse fill="none" stroke="black" cx="962" cy="-1013" rx="33.29" ry="18"/>
<text text-anchor="middle" x="962" y="-1009.3" font-family="Times,serif" font-size="14.00">start</text>
</g>
<!-- start&#45;&gt;decision0 -->
<g id="edge1" class="edge">
<title>start&#45;&gt;decision0</title>
<path fill="none" stroke="black" d="M962,-994.88C962,-987.25 962,-977.83 962,-968.31"/>
<polygon fill="black" stroke="black" points="965.5,-968.02 962,-958.02 958.5,-968.02 965.5,-968.02"/>
</g>
</g>
</svg>
